<?xml version="1.0" encoding="UTF-8"?>
<svg id="logosandtypes_com" data-name="logosandtypes com" xmlns="http://www.w3.org/2000/svg" viewBox="0 0 150 150">
  <defs>
    <style>
      .cls-1 {
        fill: #3cc7f3;
      }

      .cls-2 {
        fill: #915040;
      }

      .cls-3 {
        fill: #443738;
      }

      .cls-4 {
        fill: #7bc142;
      }

      .cls-5 {
        fill: none;
      }

      .cls-6 {
        fill: #cd0954;
      }
    </style>
  </defs>
  <path class="cls-5" d="M0,0H150V150H0V0Z"/>
  <path class="cls-3" d="M134.2,14.69h-34.53l-35.03,60.47,35.06,60.47h34.53l-36.12-60.47L134.2,14.69Z"/>
  <path class="cls-2" d="M38.59,60.8c.25,5.26-3.75,9.74-8.94,9.99-5.19,.26-9.61-3.8-9.86-9.06-.25-5.26,3.75-9.73,8.94-9.99,5.19-.26,9.61,3.8,9.86,9.06"/>
  <path class="cls-1" d="M53.64,65.28c.14,2.92-2.08,5.41-4.97,5.55-2.88,.14-5.34-2.11-5.48-5.03-.14-2.92,2.08-5.41,4.97-5.55,2.88-.14,5.34,2.11,5.48,5.03"/>
  <path class="cls-4" d="M56.22,36.67c-5.33,14.69-2.13,19.6-2.13,19.6-11.47-1.74-29.64-14.8-29.36-27.79,.2-9,6.41-16.64,15.29-17.09,17.78-.88,18.67,18.44,16.2,25.27"/>
  <path class="cls-6" d="M60.73,100.96c-7.08-20.7-4.4-28.05-4.4-28.05-16.23,4.13-41.88,25.68-39.67,44.3,1.53,12.9,11.52,22.99,24.33,22.35,25.65-1.27,23.14-28.68,19.74-38.6"/>
</svg>